# xmcd
#
# Track frame offsets:
#	150
#	12612
#	29430
#	42037
#	60750
#
# Disc length: 818 seconds
#
# Revision: 1
# Processed by: cddbd v1.5.1PL0 Copyright (c) Steve Scherf et al.
# Submitted via: CDex 1.50Beta5
#
DISCID=33033005
DTITLE=MAXIMUM THE HORMON - 延髄突き割る
DYEAR=2003
DGENRE=Rock
TTITLE0=ROLLING 1000tOON
TTITLE1=恋のスウィート糞メリケン
TTITLE2=フォーエバーHEY! HO! LET'S GO!〜ラモーンズに捧ぐ〜
TTITLE3=アバラ・ボブ(BAMBOOMAN Mix #2)
TTITLE4=secret track
EXTD=
EXTT0=
EXTT1=
EXTT2=
EXTT3=
EXTT4=
PLAYORDER=
